<svg xmlns="http://www.w3.org/2000/svg"  viewBox="0 0 40 40" width="16px" height="16px" baseProfile="basic"><path fill="#b0c1d4" d="M37.005,31.5c-0.975,0-1.91-0.463-2.502-1.237l-5.599-7.321l-5.6,7.321 c-0.592,0.774-1.527,1.237-2.502,1.237h-2.22l8.433-11.028L18.625,9.5h2.22c0.975,0,1.911,0.462,2.502,1.236l5.556,7.266 l5.557-7.266C35.051,9.962,35.987,9.5,36.962,9.5h2.22l-8.391,10.972L39.225,31.5H37.005z"/><path fill="#66798f" d="M38.17,10l-8.008,10.472L38.213,31h-1.208c-0.825,0-1.604-0.385-2.105-1.04l-5.996-7.841 l-5.996,7.841c-0.501,0.656-1.28,1.04-2.105,1.04h-1.208l8.051-10.528L19.636,10h1.208c0.825,0,1.604,0.385,2.105,1.04l5.954,7.785 l5.954-7.785c0.501-0.656,1.28-1.04,2.105-1.04H38.17 M40.194,9H38.17h-1.208c-1.129,0-2.213,0.536-2.899,1.433l-5.159,6.747 l-5.159-6.747C23.058,9.536,21.974,9,20.845,9h-1.208h-2.024l1.229,1.607l7.544,9.865l-7.586,9.92L17.57,32h2.024h1.208 c1.129,0,2.213-0.536,2.899-1.433l5.202-6.803l5.202,6.803C34.791,31.464,35.875,32,37.005,32h1.208h2.024l-1.229-1.607 l-7.586-9.92l7.544-9.865L40.194,9L40.194,9z"/><g><path fill="#b0c1d4" d="M10,32.5c-5.238,0-9.5-4.409-9.5-9.828v-4.345C0.5,12.909,4.762,8.5,10,8.5s9.5,4.408,9.5,9.827 v4.172L3.5,22.5v0.172c0,3.765,2.916,6.828,6.5,6.828c1.977,0,3.893-0.996,5.125-2.663c0.628-0.851,1.551-1.338,2.532-1.338h1.469 l-0.248,0.673C17.484,29.957,13.917,32.5,10,32.5z M16.5,19.5v-1.173c0-3.765-2.916-6.827-6.5-6.827s-6.5,3.062-6.5,6.827V19.5 H16.5z"/><path fill="#66798f" d="M10,9c4.962,0,9,4.185,9,9.327V22L3,22v0.672C3,26.713,6.14,30,10,30 c2.188,0,4.223-1.102,5.527-2.866C16.035,26.447,16.802,26,17.657,26l0.752,0c0,0,0,0,0.001,0.001c-1.322,3.588-4.704,6-8.41,6 c-4.962,0-9-4.185-9-9.328v-4.345C1,13.185,5.038,9,10,9 M3,20h14v-1.673C17,14.287,13.86,11,10,11s-7,3.287-7,7.327V20 M10,8 C4.486,8,0,12.633,0,18.327v4.345C0,28.367,4.486,33,10,33c4.125,0,7.881-2.674,9.348-6.654l0.495-1.344L18.411,25L17.658,25 c-1.142,0-2.211,0.561-2.935,1.54C13.584,28.08,11.819,29,10,29c-3.204,0-5.83-2.663-5.992-6L19,23l1,0v-1v-3.672 C20,12.633,15.514,8,10,8L10,8z M4,19v-0.673C4,14.838,6.692,12,10,12s6,2.838,6,6.327V19H4L4,19z"/></g></svg>